<?xml version="1.0" encoding="UTF-8" standalone="no"?>
<!-- Created with Inkscape (http://www.inkscape.org/) -->

<svg
   xmlns:dc="http://purl.org/dc/elements/1.1/"
   xmlns:cc="http://creativecommons.org/ns#"
   xmlns:rdf="http://www.w3.org/1999/02/22-rdf-syntax-ns#"
   xmlns:svg="http://www.w3.org/2000/svg"
   xmlns="http://www.w3.org/2000/svg"
   xmlns:sodipodi="http://sodipodi.sourceforge.net/DTD/sodipodi-0.dtd"
   xmlns:inkscape="http://www.inkscape.org/namespaces/inkscape"
   width="45.011791mm"
   height="18.790987mm"
   viewBox="0 0 45.011791 18.790987"
   version="1.1"
   id="svg8"
   inkscape:version="0.92.4 (5da689c313, 2019-01-14)"
   sodipodi:docname="logo.svg"
   inkscape:export-filename="C:\dev\pessoal\angular-my-portfolio\src\assets\images\logo.png"
   inkscape:export-xdpi="96"
   inkscape:export-ydpi="96">
  <defs
     id="defs2" />
  <sodipodi:namedview
     id="base"
     pagecolor="#ffffff"
     bordercolor="#666666"
     borderopacity="1.0"
     inkscape:pageopacity="0.0"
     inkscape:pageshadow="2"
     inkscape:zoom="2.8"
     inkscape:cx="106.13653"
     inkscape:cy="80.481088"
     inkscape:document-units="mm"
     inkscape:current-layer="layer1"
     showgrid="false"
     inkscape:window-width="1366"
     inkscape:window-height="705"
     inkscape:window-x="-8"
     inkscape:window-y="-8"
     inkscape:window-maximized="1" />
  <metadata
     id="metadata5">
    <rdf:RDF>
      <cc:Work
         rdf:about="">
        <dc:format>image/svg+xml</dc:format>
        <dc:type
           rdf:resource="http://purl.org/dc/dcmitype/StillImage" />
        <dc:title />
      </cc:Work>
    </rdf:RDF>
  </metadata>
  <g
     inkscape:label="Camada 1"
     inkscape:groupmode="layer"
     id="layer1"
     transform="translate(206.23116,-453.95192)">
    <text
       xml:space="preserve"
       style="font-style:normal;font-weight:normal;font-size:10.58333302px;line-height:1.25;font-family:sans-serif;letter-spacing:0px;word-spacing:0px;fill:#000000;fill-opacity:1;stroke:none;stroke-width:0.26458332"
       x="-184.00085"
       y="398.89905"
       id="text35"><tspan
         sodipodi:role="line"
         id="tspan33"
         x="-184.00085"
         y="408.55453"
         style="stroke-width:0.26458332" /></text>
    <g
       id="g92"
       transform="matrix(0.06012358,0,0,0.0676491,-148.54596,424.90882)"
       style="fill:#ffffff"
       inkscape:export-filename="C:\dev\pessoal\angular-my-portfolio\src\assets\images\logo.png"
       inkscape:export-xdpi="96"
       inkscape:export-ydpi="96">
      <path
         id="path37"
         d="m -762.96369,705.94117 17.39426,-0.0687 c 0,0 14.88201,-3.84639 15.46401,-4.02542 l 94.72471,-28.59093 c 0.934,-0.288 1.782,-0.799 2.473,-1.49 l 153.563,-153.563 c 10.865,-10.864 16.336,-25.684 15.071,-41.213 -0.87,-10.679 -5.085,-20.897 -12,-29.081 -9.977,-11.808 -24.157,-18.44 -39.371,-18.587 -14.251,-0.137 -27.891,5.806 -37.968,15.884 l -152.927,152.927 c -0.691,0.691 -1.203,1.54 -1.491,2.473 l -27.741,89.88 -27.19192,-0.28175 z m 246.80298,-264.62099 c 10.702,0 20.764,4.167 28.331,11.735 7.567,7.567 11.734,17.629 11.734,28.331 0,9.936 -3.597,19.316 -10.167,26.665 1.347,-14.865 -3.651,-30.203 -15.006,-41.558 -11.355,-11.355 -26.693,-16.354 -41.559,-15.006 7.35,-6.57 16.731,-10.167 26.667,-10.167 z m 6.408,33.659 c 15.615,15.616 15.62,41.021 0.017,56.645 l -122.552,122.552 c -5.081,-28.646 -28.113,-51.547 -56.804,-56.521 l 122.677,-122.678 c 15.623,-15.62 41.04,-15.62 56.662,0.002 z m -188.218,133.722 c 29.705,1.39 53.218,24.758 54.676,54.44 l -37.763,11.655 c -3.236,-13.788 -14.321,-25.17 -28.552,-28.384 z m -15.193,49.226 c 10.323,1.918 18.635,10.125 20.62,20.414 l -29.755,9.184 z"
         inkscape:connector-curvature="0"
         sodipodi:nodetypes="ccccscccccsccccscscscsccccccccccccccc"
         style="fill:#ffffff" />
      <g
         id="g39"
         style="fill:#ffffff">
</g>
      <g
         id="g41"
         style="fill:#ffffff">
</g>
      <g
         id="g43"
         style="fill:#ffffff">
</g>
      <g
         id="g45"
         style="fill:#ffffff">
</g>
      <g
         id="g47"
         style="fill:#ffffff">
</g>
      <g
         id="g49"
         style="fill:#ffffff">
</g>
      <g
         id="g51"
         style="fill:#ffffff">
</g>
      <g
         id="g53"
         style="fill:#ffffff">
</g>
      <g
         id="g55"
         style="fill:#ffffff">
</g>
      <g
         id="g57"
         style="fill:#ffffff">
</g>
      <g
         id="g59"
         style="fill:#ffffff">
</g>
      <g
         id="g61"
         style="fill:#ffffff">
</g>
      <g
         id="g63"
         style="fill:#ffffff">
</g>
      <g
         id="g65"
         style="fill:#ffffff">
</g>
      <g
         id="g67"
         style="fill:#ffffff">
</g>
    </g>
    <g
       aria-label="&lt;     &gt;"
       transform="matrix(1.1464353,0,0,1.0454125,17.358981,-43.587082)"
       style="font-style:normal;font-weight:normal;font-size:12.4058857px;line-height:1.25;font-family:sans-serif;letter-spacing:0px;word-spacing:0px;fill:#ffffff;fill-opacity:1;stroke:none;stroke-width:0.31014714"
       id="text23-5"
       inkscape:export-filename="C:\dev\pessoal\angular-my-portfolio\src\assets\images\logo.png"
       inkscape:export-xdpi="96"
       inkscape:export-ydpi="96">
      <path
         d="m -165.93756,477.1842 v 1.01402 l 7.93077,6.42714 -7.93077,6.56135 v 2.71401 l 10.1692,-8.39554 v -0.17895 z"
         style="font-style:normal;font-variant:normal;font-weight:normal;font-stretch:normal;font-size:29.77412796px;font-family:'Vladimir Script';-inkscape-font-specification:'Vladimir Script';fill:#ffffff;stroke-width:0.28578797"
         id="path122"
         inkscape:connector-curvature="0" />
      <path
         d="m -184.72656,493.8263 v -1.01833 l -8.03606,-6.36093 8.03606,-6.479 v -2.68605 l -10.30419,8.30906 v 0.1771 z"
         style="font-style:normal;font-variant:normal;font-weight:normal;font-stretch:normal;font-size:29.77412796px;font-family:'Vladimir Script';-inkscape-font-specification:'Vladimir Script';fill:#ffffff;stroke-width:0.28619301"
         id="path124"
         inkscape:connector-curvature="0" />
    </g>
  </g>
</svg>
