<?xml version="1.0" encoding="UTF-8" standalone="no"?>
<svg
   xmlns:dc="http://purl.org/dc/elements/1.1/"
   xmlns:cc="http://creativecommons.org/ns#"
   xmlns:rdf="http://www.w3.org/1999/02/22-rdf-syntax-ns#"
   xmlns:svg="http://www.w3.org/2000/svg"
   xmlns="http://www.w3.org/2000/svg"
   xmlns:sodipodi="http://sodipodi.sourceforge.net/DTD/sodipodi-0.dtd"
   xmlns:inkscape="http://www.inkscape.org/namespaces/inkscape"
   id="flag-icon-css-us"
   viewBox="0 0 512 512.02503"
   version="1.1"
   sodipodi:docname="us.svg"
   inkscape:version="0.92.4 (5da689c313, 2019-01-14)"
   width="512"
   height="512.02502">
  <metadata
     id="metadata19">
    <rdf:RDF>
      <cc:Work
         rdf:about="">
        <dc:format>image/svg+xml</dc:format>
        <dc:type
           rdf:resource="http://purl.org/dc/dcmitype/StillImage" />
      </cc:Work>
    </rdf:RDF>
  </metadata>
  <defs
     id="defs17" />
  <sodipodi:namedview
     pagecolor="#ffffff"
     bordercolor="#666666"
     borderopacity="1"
     objecttolerance="10"
     gridtolerance="10"
     guidetolerance="10"
     inkscape:pageopacity="0"
     inkscape:pageshadow="2"
     inkscape:window-width="1366"
     inkscape:window-height="705"
     id="namedview15"
     showgrid="false"
     inkscape:zoom="0.49166667"
     inkscape:cx="357.42314"
     inkscape:cy="163.53941"
     inkscape:window-x="-8"
     inkscape:window-y="-8"
     inkscape:window-maximized="1"
     inkscape:current-layer="g12" />
  <g
     id="g12"
     style="fill-rule:evenodd"
     transform="translate(539.9322,-176.12094)">
    <path
       inkscape:connector-curvature="0"
       style="fill:#ffffff"
       d="m -507.9322,176.14596 c -17.7,0 -32,14.3 -32,32 v 463.99999 c 0,8.8 7.2,16 16,16 h 32 c 8.8,0 16,-7.2 16,-16 V 208.14596 c 0,-17.7 -14.3,-32 -32,-32 z m 267.9,303.59999 c -57.2,-15.1 -111.7,-28.8 -203.9,11.1 v 69.3 c 185.7,-92.2 221.7,53.3 397.499998,-23.1 11.4,-5 18.5,-16.5 18.5,-28.8 v -36 c -43.6,17.3 -80.199998,24.1 -112.099998,24.1 -37.4,-0.1 -68.9,-8.4 -100,-16.6 z m 0,-96 c -57.2,-15.1 -111.7,-28.8 -203.9,11.1 v 61.5 c 94.8,-37.6 154.6,-22.7 212.1,-7.6 57.2,15.1 111.7,28.8 203.899998,-11.1 v -61.5 c -43.6,17.3 -80.199998,24.1 -112.099998,24.1 -37.4,0 -68.9,-8.3 -100,-16.5 z m 9.5,-125.9 c 51.8,15.6 97.4,29 202.599998,-20.1 v -30.79999 c 0,-25.1 -26.8,-38.1 -49.4,-26.6 -171.299998,87.29999 -157.199998,-66.4 -366.599998,28.2 v 151.89999 c 94.8,-37.5 154.6,-22.7 212.1,-7.6 57.2,15 111.7,28.7 203.899998,-11.1 v -68.9 c -53.6,23.5 -93.299998,31.4 -126.099998,31.4 -32.8,0 -59,-7.8 -85.7,-15.9 -4,-1.2 -8.1,-2.4 -12.1,-3.5 v -33.2 c 7.2,2 14.3,4.1 21.3,6.2 z m -149.4,46.4 c -8.8,0 -16,-7.1 -16,-16 0,-8.8 7.2,-16 16,-16 8.8,0 16,7.1 16,16 0,8.9 -7.2,16 -16,16 z m 0,-55.8 c -8.8,0 -16,-7.1 -16,-16 0,-8.79999 7.2,-15.99999 16,-15.99999 8.8,0 16,7.1 16,15.99999 0,8.8 -7.2,16 -16,16 z m 64,47.9 c -8.8,0 -16,-7.1 -16,-16 0,-8.8 7.2,-16 16,-16 8.8,0 16,7.1 16,16 0,8.8 -7.2,16 -16,16 z m 0,-55.9 c -8.8,0 -16,-7.1 -16,-15.99999 0,-8.8 7.2,-16 16,-16 8.8,0 16,7.1 16,16 0,8.79999 -7.2,15.99999 -16,15.99999 z"
       id="path2-6" />
  </g>
</svg>
